<mxfile host="app.diagrams.net" modified="2023-06-13T12:34:59.553Z" agent="Mozilla/5.0 (Windows NT 10.0; Win64; x64) AppleWebKit/537.36 (KHTML, like Gecko) Chrome/113.0.0.0 Safari/537.36" version="21.3.8" etag="9DWtXRNftakCXvLKaw0c" type="github">
  <diagram name="Page-1" id="R2wYEuFijr8O7YiaHJxH">
    <mxGraphModel>
      <root>
        <mxCell id="0" />
        <mxCell id="1" parent="0" />
      </root>
    </mxGraphModel>
  </diagram>
</mxfile>
